<?xml version="1.0"?>
<svg xmlns="http://www.w3.org/2000/svg" viewBox="0 0 64 64" width="512" height="512"><g id="Concrete_mixer" data-name="Concrete mixer"><path d="M49,58a3,3,0,1,1,3-3A3,3,0,0,1,49,58Zm0-4a1,1,0,1,0,1,1A1,1,0,0,0,49,54Z"/><path d="M15,58a3,3,0,1,1,3-3A3,3,0,0,1,15,58Zm0-4a1,1,0,1,0,1,1A1,1,0,0,0,15,54Z"/><path d="M46,44H44a1,1,0,0,1,0-2h2a1,1,0,0,1,0,2Z"/><path d="M21.81,37.449a.972.972,0,0,1-.259-.035,1,1,0,0,1-.707-1.225l.259-.965a1,1,0,0,1,1.931.517l-.259.966A1,1,0,0,1,21.81,37.449Z"/><path d="M61,52H60V39A11.013,11.013,0,0,0,49,28H39a1,1,0,0,0-1,1V46H31.8a7.027,7.027,0,0,0,3.05-4.113l1.49-5.562a7.039,7.039,0,0,0-2.643-7.472L26.831,23.86a5.06,5.06,0,0,0-2.988-.957L8,23.048a3.011,3.011,0,0,0-2.87,2.223l-2.6,9.7a3,3,0,0,0,1.245,3.28L4,38.393V46H3a1,1,0,0,0-1,1v6a1,1,0,0,0,1,1H4v1a3,3,0,0,0,3,3H8.685a6.985,6.985,0,0,0,12.63,0h21.37a6.985,6.985,0,0,0,12.63,0H59a3,3,0,0,0,3-3V53A1,1,0,0,0,61,52ZM44,30h5a9.011,9.011,0,0,1,8.941,8H56V36a1,1,0,0,0-2,0v2H45a1,1,0,0,1-1-1ZM10,42.354,15.522,46H10ZM4.467,35.485l2.6-9.695a1,1,0,0,1,.957-.742l15.84-.145h.006l-1.73,6.456a1,1,0,0,0,.707,1.224.972.972,0,0,0,.259.035,1,1,0,0,0,.965-.742l1.694-6.321,6.753,4.914a5.031,5.031,0,0,1,1.889,5.337l-1.491,5.562a5.029,5.029,0,0,1-4.3,3.678l-8.3.879,1.435-5.355a1,1,0,0,0-1.932-.518l-1.451,5.418c-.013-.009-.028-.014-.042-.023L4.883,36.579A1,1,0,0,1,4.467,35.485ZM8,41.034V42H6V39.713ZM8,44v2H6V44Zm.08,12H7a1,1,0,0,1-1-1V54H8.08a6.29,6.29,0,0,0,0,2ZM15,60a5,5,0,1,1,5-5A5.006,5.006,0,0,1,15,60Zm0-12a7,7,0,0,0-6.315,4H4V48H38v4H21.315A7,7,0,0,0,15,48Zm27.08,8H21.92a6.29,6.29,0,0,0,0-2H42.08a6.29,6.29,0,0,0,0,2ZM49,60a5,5,0,1,1,5-5A5.006,5.006,0,0,1,49,60Zm0-12a7,7,0,0,0-6.315,4H40V30h2v7a3,3,0,0,0,3,3H58v2H55a3,3,0,0,0,0,6h3v4H55.315A7,7,0,0,0,49,48Zm9-4v2H55a1,1,0,0,1,0-2Zm2,11a1,1,0,0,1-1,1H55.92a6.29,6.29,0,0,0,0-2H60Z"/></g></svg>
